<svg width="496" height="496" viewBox="0 0 496 496" fill="none" xmlns="http://www.w3.org/2000/svg">
<path d="M248 0C111 0 0 111 0 248C0 385 111 496 248 496C385 496 496 385 496 248C496 111 385 0 248 0ZM369.8 169.9L329.1 361.7C326.1 375.3 318 378.6 306.7 372.2L244.7 326.5L214.8 355.3C211.5 358.6 208.7 361.4 202.3 361.4L206.7 298.3L321.6 194.5C326.6 190.1 320.5 187.6 313.9 192L171.9 281.4L110.7 262.3C97.4 258.1 97.1 249 113.5 242.6L352.6 150.4C363.7 146.4 373.4 153.1 369.8 169.9V169.9Z" fill="white"/>
</svg>
