<svg width="539" height="320" viewBox="0 0 539 320" fill="none" xmlns="http://www.w3.org/2000/svg">
<path d="M526.4 21.7C530.1 9.2 526.4 0 508.6 0H449.7C434.7 0 427.8 7.9 424.1 16.7C424.1 16.7 394.1 89.8 351.7 137.2C338 150.9 331.7 155.3 324.2 155.3C320.5 155.3 314.8 150.9 314.8 138.4V21.7C314.8 6.7 310.6 0 298.2 0H205.6C196.2 0 190.6 7 190.6 13.5C190.6 27.7 211.8 31 214 71V157.8C214 176.8 210.6 180.3 203.1 180.3C183.1 180.3 134.5 106.9 105.7 22.9C99.9 6.6 94.2 0 79.1 0H20.2C3.4 0 3.8147e-07 7.9 3.8147e-07 16.7C3.8147e-07 32.3 20 109.8 93.1 212.2C141.8 282.1 210.4 320 272.8 320C310.3 320 314.9 311.6 314.9 297.1C314.9 230.3 311.5 224 330.3 224C339 224 354 228.4 389 262.1C429 302.1 435.6 320 458 320H516.9C533.7 320 542.2 311.6 537.3 295C526.1 260.1 450.4 188.3 447 183.5C438.3 172.3 440.8 167.3 447 157.3C447.1 157.2 519 56 526.4 21.7V21.7Z" fill="white"/>
</svg>
